#!OML:ASF H:\Dans Jumps\Project 1\Capture day 1\Session 1\subject.ASF
:FULLY-SPECIFIED
:DEGREES
631
root 0.645614 17.6706 11.7567 7.31779 -2.41977 -1.45062
lowerback -4.38715 -0.190639 -0.0117692
upperback 1.04318 -0.309872 1.62653
thorax 3.54471 -0.172377 1.66019
lowerneck -13.5549 -0.943375 -2.54553
upperneck 16.4373 -1.42903 3.62472
head 7.32264 -0.509458 1.45702
rclavicle 1.98785e-016 3.77691e-015
rhumerus -27.2514 -15.9405 -79.4625
rradius 23.3325
rwrist 38.1167
rhand -15.8422 -26.6777
rfingers 7.12502
rthumb 10.3524 -56.4029
lclavicle 1.98785e-016 3.77691e-015
lhumerus -24.261 0.034684 89.5267
lradius 18.5448
lwrist 2.661
lhand -24.337 -5.81855
lfingers 7.12502
lthumb 2.15188 24.1503
rfemur -12.7896 -4.1536 21.282
rtibia 21.4889
rfoot -15.1006 -2.02267
rtoes 9.67954
lfemur -12.0163 8.68897 -19.0859
ltibia 18.2178
lfoot -10.548 7.34099
ltoes -4.0964
632
root 0.645176 17.6703 11.7562 7.30379 -2.41904 -1.45939
lowerback -4.39118 -0.187072 0.00103037
upperback 1.04881 -0.30592 1.6253
thorax 3.55261 -0.170174 1.65202
lowerneck -13.6164 -0.943526 -2.57845
upperneck 16.4846 -1.42707 3.65029
head 7.34923 -0.507415 1.47129
rclavicle -8.64713e-015 -6.16232e-015
rhumerus -27.2464 -15.9561 -79.4705
rradius 23.3235
rwrist 38.1223
rhand -15.8581 -26.6314
rfingers 7.12502
rthumb 10.3371 -56.3573
lclavicle -8.64713e-015 -6.16232e-015
lhumerus -24.24 0.0388475 89.4918
lradius 18.5517
lwrist 2.71567
lhand -24.3239 -5.70286
lfingers 7.12502
lthumb 2.1645 24.2659
rfemur -12.7721 -4.147 21.2929
rtibia 21.4818
rfoot -15.1004 -2.03634
rtoes 9.67088
lfemur -12.0096 8.68724 -19.0718
ltibia 18.2328
lfoot -10.5513 7.34511
ltoes -4.09381
633
root 0.644786 17.67 11.7556 7.29032 -2.41704 -1.46737
lowerback -4.39448 -0.183461 0.012473
upperback 1.05434 -0.301831 1.62429
thorax 3.56 -0.167932 1.64486
lowerneck -13.6645 -0.943827 -2.60226
upperneck 16.5205 -1.42537 3.66619
head 7.36961 -0.505997 1.48082
rclavicle -1.2921e-014 1.68967e-014
rhumerus -27.2389 -15.9731 -79.4786
rradius 23.3161
rwrist 38.1314
rhand -15.8781 -26.5969
rfingers 7.12502
rthumb 10.3177 -56.3238
lclavicle -1.2921e-014 1.68967e-014
lhumerus -24.2159 0.0296993 89.4614
lradius 18.5649
lwrist 2.79839
lhand -24.2939 -5.51334
lfingers 7.12502
lthumb 2.19356 24.4551
rfemur -12.7568 -4.14463 21.3025
rtibia 21.4769
rfoot -15.1014 -2.04556
rtoes 9.66483
lfemur -12.0028 8.68504 -19.0588
ltibia 18.2454
lfoot -10.5539 7.34814
ltoes -4.09137
634
root 0.644435 17.6697 11.755 7.27812 -2.41654 -1.46898
lowerback -4.39795 -0.17956 0.0167957
upperback 1.05905 -0.296873 1.62139
thorax 3.56665 -0.165381 1.63982
lowerneck -13.6853 -0.943402 -2.60408
upperneck 16.534 -1.42338 3.66115
head 7.37762 -0.505363 1.47975
rclavicle 5.1684e-015 -1.37161e-014
rhumerus -27.2306 -15.9879 -79.487
rradius 23.3112
rwrist 38.141
rhand -15.8939 -26.5815
rfingers 7.12502
rthumb 10.3026 -56.3092
lclavicle 5.1684e-015 -1.37161e-014
lhumerus -24.194 0.01306 89.4313
lradius 18.5758
lwrist 2.87985
lhand -24.267 -5.35386
lfingers 7.12502
lthumb 2.21953 24.6143
rfemur -12.7449 -4.14058 21.3047
rtibia 21.4748
rfoot -15.102 -2.05294
rtoes 9.67471
lfemur -11.9965 8.68273 -19.0536
ltibia 18.255
lfoot -10.5559 7.35161
ltoes -4.08997
635
root 0.644107 17.6695 11.7541 7.26753 -2.41559 -1.46814
lowerback -4.3994 -0.175708 0.017522
upperback 1.06237 -0.291718 1.61803
thorax 3.57072 -0.16279 1.63632
lowerneck -13.6754 -0.940245 -2.57858
upperneck 16.5213 -1.41886 3.63186
head 7.37119 -0.504459 1.46632
rclavicle -7.50412e-015 5.96354e-016
rhumerus -27.223 -15.9929 -79.4971
rradius 23.3121
rwrist 38.1421
rhand -15.8949 -26.5762
rfingers 7.12502
rthumb 10.3016 -56.3039
lclavicle -7.50412e-015 5.96354e-016
lhumerus -24.1758 0.0111401 89.3974
lradius 18.5735
lwrist 2.92656
lhand -24.2563 -5.28178
lfingers 7.12502
lthumb 2.22985 24.6863
rfemur -12.737 -4.13443 21.304
rtibia 21.4757
rfoot -15.1025 -2.0604
rtoes 9.69181
lfemur -11.9916 8.6788 -19.0514
ltibia 18.2616
lfoot -10.5561 7.35547
ltoes -4.09041
636
root 0.643796 17.6694 11.7532 7.25873 -2.41499 -1.46576
lowerback -4.40153 -0.171734 0.0156522
upperback 1.06593 -0.286251 1.61441
thorax 3.57544 -0.160099 1.63405
lowerneck -13.6552 -0.932829 -2.53508
upperneck 16.4981 -1.40963 3.58842
head 7.35916 -0.501624 1.44571
rclavicle 1.2921e-015 -5.96354e-015
rhumerus -27.213 -15.9944 -79.5077
rradius 23.3159
rwrist 38.1417
rhand -15.8864 -26.574
rfingers 7.12502
rthumb 10.3097 -56.3013
lclavicle 1.2921e-015 -5.96354e-015
lhumerus -24.1597 0.0239642 89.3587
lradius 18.5536
lwrist 2.91588
lhand -24.2749 -5.33472
lfingers 7.12502
lthumb 2.21188 24.6336
rfemur -12.7329 -4.12644 21.3015
rtibia 21.48
rfoot -15.1036 -2.06802
rtoes 9.71745
lfemur -11.9875 8.67342 -19.0514
ltibia 18.2648
lfoot -10.5552 7.36039
ltoes -4.08524
637
root 0.643522 17.6693 11.7519 7.25322 -2.41321 -1.46059
lowerback -4.40334 -0.169102 0.00931624
upperback 1.06809 -0.282299 1.61088
thorax 3.57859 -0.158248 1.63427
lowerneck -13.629 -0.923472 -2.4835
upperneck 16.4678 -1.39834 3.53928
head 7.3436 -0.497905 1.42208
rclavicle -6.16232e-015 -9.93923e-016
rhumerus -27.1994 -15.9901 -79.5198
rradius 23.3203
rwrist 38.1383
rhand -15.8741 -26.5813
rfingers 7.12502
rthumb 10.3216 -56.308
lclavicle -6.16232e-015 -9.93923e-016
lhumerus -24.1477 0.0515492 89.317
lradius 18.5187
lwrist 2.85601
lhand -24.3276 -5.51532
lfingers 7.12502
lthumb 2.16094 24.4535
rfemur -12.7349 -4.11785 21.2964
rtibia 21.4865
rfoot -15.1036 -2.07654
rtoes 9.74946
lfemur -11.9874 8.66591 -19.0553
ltibia 18.2653
lfoot -10.5513 7.36516
ltoes -4.08324
638
root 0.643235 17.6693 11.7506 7.25004 -2.41224 -1.45447
lowerback -4.40639 -0.16668 -0.000264056
upperback 1.06885 -0.278453 1.60799
thorax 3.58102 -0.15652 1.63696
lowerneck -13.6029 -0.915076 -2.44074
upperneck 16.4408 -1.38843 3.50016
head 7.32932 -0.494458 1.40308
rclavicle -2.6339e-015 -8.94531e-015
rhumerus -27.1866 -15.9855 -79.5304
rradius 23.3253
rwrist 38.1375
rhand -15.8671 -26.5902
rfingers 7.12502
rthumb 10.3283 -56.3166
lclavicle -2.6339e-015 -8.94531e-015
lhumerus -24.137 0.0877105 89.2748
lradius 18.4841
lwrist 2.79782
lhand -24.3722 -5.7057
lfingers 7.12502
lthumb 2.11786 24.2635
rfemur -12.7398 -4.10741 21.2908
rtibia 21.4936
rfoot -15.1033 -2.08771
rtoes 9.76997
lfemur -11.9897 8.66038 -19.0608
ltibia 18.2648
lfoot -10.5468 7.36888
ltoes -4.08298
639
root 0.64305 17.6693 11.7494 7.24829 -2.40944 -1.44668
lowerback -4.41163 -0.165378 -0.0125012
upperback 1.06908 -0.275996 1.6061
thorax 3.58418 -0.155552 1.64207
lowerneck -13.569 -0.913275 -2.40795
upperneck 16.4062 -1.3862 3.46559
head 7.31157 -0.49499 1.3864
rclavicle -3.62782e-015 -9.93923e-015
rhumerus -27.175 -15.9738 -79.5391
rradius 23.3333
rwrist 38.1292
rhand -15.8623 -26.605
rfingers 7.12502
rthumb 10.333 -56.3311
lclavicle -3.62782e-015 -9.93923e-015
lhumerus -24.124 0.112657 89.2393
lradius 18.4502
lwrist 2.76259
lhand -24.409 -5.86692
lfingers 7.12502
lthumb 2.08232 24.1027
rfemur -12.7462 -4.10246 21.2831
rtibia 21.5002
rfoot -15.1018 -2.09693
rtoes 9.77299
lfemur -11.9938 8.65497 -19.0689
ltibia 18.2642
lfoot -10.5418 7.37131
ltoes -4.0825
640
root 0.642915 17.6693 11.7481 7.24646 -2.40465 -1.44253
lowerback -4.41519 -0.165047 -0.0221365
upperback 1.06785 -0.275012 1.60604
thorax 3.58495 -0.155267 1.64749
lowerneck -13.5341 -0.919805 -2.39695
upperneck 16.375 -1.39409 3.44848
head 7.29534 -0.500108 1.37802
rclavicle 3.8763e-015 -1.92821e-014
rhumerus -27.1643 -15.9665 -79.5445
rradius 23.3394
rwrist 38.126
rhand -15.8619 -26.617
rfingers 7.12502
rthumb 10.3333 -56.3432
lclavicle 3.8763e-015 -1.92821e-014
lhumerus -24.1125 0.132501 89.2072
lradius 18.4246
lwrist 2.75322
lhand -24.4191 -5.9617
lfingers 7.12502
lthumb 2.07265 24.008
rfemur -12.7512 -4.09817 21.2798
rtibia 21.5049
rfoot -15.0996 -2.1098
rtoes 9.75804
lfemur -11.9989 8.65232 -19.0733
ltibia 18.2652
lfoot -10.5382 7.37028
ltoes -4.08077
641
root 0.6429 17.6693 11.7469 7.24412 -2.39765 -1.4414
lowerback -4.41574 -0.16421 -0.0276232
upperback 1.06463 -0.273553 1.60649
thorax 3.58191 -0.15464 1.65114
lowerneck -13.5146 -0.932643 -2.42531
upperneck 16.3637 -1.40936 3.46826
head 7.28901 -0.507589 1.38757
rclavicle 4.47266e-015 -5.96354e-015
rhumerus -27.1578 -15.9628 -79.5465
rradius 23.3459
rwrist 38.1222
rhand -15.8632 -26.6253
rfingers 7.12502
rthumb 10.3321 -56.3515
lclavicle 4.47266e-015 -5.96354e-015
lhumerus -24.1019 0.137863 89.1814
lradius 18.4112
lwrist 2.77933
lhand -24.393 -5.94121
lfingers 7.12502
lthumb 2.09779 24.0282
rfemur -12.754 -4.09867 21.2793
rtibia 21.5067
rfoot -15.0964 -2.11883
rtoes 9.74501
lfemur -12.0048 8.65122 -19.0747
ltibia 18.2691
lfoot -10.5376 7.36691
ltoes -4.07811
